<svg id="Group_1804" data-name="Group 1804" xmlns="http://www.w3.org/2000/svg" xmlns:xlink="http://www.w3.org/1999/xlink" width="186.047" height="184.246" viewBox="0 0 186.047 184.246">
  <defs>
    <clipPath id="clip-path">
      <rect id="Rectangle_2005" data-name="Rectangle 2005" width="186.047" height="184.246" fill="none"/>
    </clipPath>
    <clipPath id="clip-path-3">
      <rect id="Rectangle_1998" data-name="Rectangle 1998" width="135.459" height="81.543" fill="none"/>
    </clipPath>
    <clipPath id="clip-path-4">
      <rect id="Rectangle_1999" data-name="Rectangle 1999" width="71.695" height="43.159" fill="none"/>
    </clipPath>
    <clipPath id="clip-path-5">
      <rect id="Rectangle_2000" data-name="Rectangle 2000" width="112.938" height="67.986" fill="none"/>
    </clipPath>
    <clipPath id="clip-path-6">
      <rect id="Rectangle_2001" data-name="Rectangle 2001" width="55.541" height="69.119" fill="none"/>
    </clipPath>
    <clipPath id="clip-path-7">
      <rect id="Rectangle_2002" data-name="Rectangle 2002" width="29.227" height="30.182" fill="none"/>
    </clipPath>
    <clipPath id="clip-path-8">
      <rect id="Rectangle_2003" data-name="Rectangle 2003" width="27.153" height="28.039" fill="none"/>
    </clipPath>
  </defs>
  <g id="Group_1033" data-name="Group 1033" clip-path="url(#clip-path)">
    <g id="Group_1032" data-name="Group 1032" transform="translate(0 0)">
      <g id="Group_1031" data-name="Group 1031" clip-path="url(#clip-path)">
        <path id="Path_431" data-name="Path 431" d="M417.107,338.544c36.958-1.814,65.312-43.054,65.592-81.147.311-42.247-34.006-67.522-39.96-71.721-20.714-14.607-60.884-29.9-87.352-8.959-29.417,23.271-20.211,74.126-10.06,99.483,2.661,6.647,26.776,64.553,71.781,62.344" transform="translate(-311.892 -154.359)" fill="#ecf3fe"/>
        <g id="Group_1015" data-name="Group 1015" transform="translate(50.588 35.205)" opacity="0.25" style="mix-blend-mode: multiply;isolation: isolate">
          <g id="Group_1014" data-name="Group 1014">
            <g id="Group_1013" data-name="Group 1013" clip-path="url(#clip-path-3)">
              <path id="Path_432" data-name="Path 432" d="M852.012,528.015a26.689,26.689,0,0,0-24.791-17.393c-.105,0-.2,0-.307.009-.755-.063-1.519-.09-2.292-.09a29.757,29.757,0,0,0-12.681,2.829c-2.635-16.568-16.563-29.2-33.353-29.2-14.745,0-27.285,9.757-31.9,23.351H746.6c-15.562,0-28.172,13.031-28.172,29.092,0,15.988,12.488,28.964,27.935,29.092v.009H827.95v-.018c14.393-.408,25.941-12.569,25.941-27.531a27.945,27.945,0,0,0-1.879-10.148" transform="translate(-718.432 -484.169)" fill="#4786d1"/>
            </g>
          </g>
        </g>
        <path id="Path_433" data-name="Path 433" d="M722.125,478.783h.079c4.619-13.594,17.16-23.351,31.9-23.351,16.791,0,30.719,12.632,33.353,29.2a29.759,29.759,0,0,1,12.681-2.829c.773,0,1.537.027,2.292.09.105-.009.2-.009.307-.009a26.689,26.689,0,0,1,24.791,17.393,27.941,27.941,0,0,1,1.879,10.148c0,14.963-11.548,27.124-25.942,27.532v.018H721.888v-.009c-15.447-.127-27.935-13.1-27.935-29.092,0-16.06,12.61-29.092,28.172-29.092" transform="translate(-645.089 -422.317)" fill="#3b82f4"/>
        <g id="Group_1018" data-name="Group 1018" transform="translate(1.511 36.806)" opacity="0.25" style="mix-blend-mode: multiply;isolation: isolate">
          <g id="Group_1017" data-name="Group 1017">
            <g id="Group_1016" data-name="Group 1016" clip-path="url(#clip-path-4)">
              <path id="Path_434" data-name="Path 434" d="M92.159,529.4a14.126,14.126,0,0,0-13.121-9.206c-.056,0-.107,0-.163,0-.4-.034-.8-.048-1.213-.048a15.748,15.748,0,0,0-6.712,1.5,17.767,17.767,0,0,0-34.539-3.1h-.042a15.408,15.408,0,0,0-.125,30.795v0h43.18v-.009a14.369,14.369,0,0,0,13.73-14.572,14.79,14.79,0,0,0-.995-5.371" transform="translate(-21.458 -506.19)" fill="#4786d1"/>
            </g>
          </g>
        </g>
        <path id="Path_435" data-name="Path 435" d="M14.911,493.17h.042a17.952,17.952,0,0,1,16.886-12.359,18.072,18.072,0,0,1,17.653,15.455,15.751,15.751,0,0,1,6.712-1.5c.409,0,.813.014,1.213.048.056,0,.107,0,.163,0A14.126,14.126,0,0,1,70.7,504.018a14.79,14.79,0,0,1,.995,5.371,14.369,14.369,0,0,1-13.73,14.572v.01H14.785v0a15.408,15.408,0,0,1,.125-30.795" transform="translate(0 -445.85)" fill="#52d1bd"/>
        <g id="Group_1021" data-name="Group 1021" transform="translate(43.975 70.779)" opacity="0.25" style="mix-blend-mode: multiply;isolation: isolate">
          <g id="Group_1020" data-name="Group 1020">
            <g id="Group_1019" data-name="Group 1019" clip-path="url(#clip-path-5)">
              <path id="Path_436" data-name="Path 436" d="M713.971,992.874h-.066a28.28,28.28,0,0,0-26.6-19.469c-14,0-25.612,10.532-27.808,24.346a24.812,24.812,0,0,0-10.573-2.359c-.644,0-1.281.023-1.911.075-.088-.007-.168-.007-.256-.007a22.252,22.252,0,0,0-20.669,14.5,23.3,23.3,0,0,0-1.567,8.46c0,12.475,9.628,22.614,21.629,22.954v.015h68.019v-.007c12.879-.106,23.291-10.925,23.291-24.255,0-13.39-10.514-24.255-23.488-24.255" transform="translate(-624.521 -973.405)" fill="#4786d1"/>
            </g>
          </g>
        </g>
        <path id="Path_437" data-name="Path 437" d="M687.138,965.735h-.066a28.28,28.28,0,0,0-26.6-19.469c-14,0-25.612,10.532-27.808,24.346a24.81,24.81,0,0,0-10.573-2.359c-.644,0-1.281.023-1.911.075-.088-.007-.168-.007-.256-.007a22.252,22.252,0,0,0-20.669,14.5,23.3,23.3,0,0,0-1.567,8.46c0,12.475,9.628,22.614,21.629,22.954v.015h68.019v-.007c12.879-.106,23.291-10.925,23.291-24.255,0-13.39-10.514-24.255-23.488-24.255" transform="translate(-555.602 -877.461)" fill="#fff"/>
        <g id="Group_1024" data-name="Group 1024" transform="translate(71.159 98.175)" opacity="0.25" style="mix-blend-mode: multiply;isolation: isolate">
          <g id="Group_1023" data-name="Group 1023">
            <g id="Group_1022" data-name="Group 1022" clip-path="url(#clip-path-6)">
              <path id="Path_438" data-name="Path 438" d="M1038.355,1350.181l-9.115,9.412h0l-18.658,19.267,9.115,9.412,11.5-11.872v42.9h14.316v-42.9l11.5,11.873,9.115-9.412Z" transform="translate(-1010.582 -1350.181)" fill="#4786d1"/>
            </g>
          </g>
        </g>
        <path id="Path_439" data-name="Path 439" d="M1041.8,1348.256l-27.768-28.674-9.115,9.412h0l-18.658,19.267,9.115,9.412,11.5-11.873v42.9h14.316V1345.8l11.5,11.873Z" transform="translate(-916.814 -1223.632)" fill="#f4b545"/>
        <path id="Path_440" data-name="Path 440" d="M1084.017,37.818a.776.776,0,0,1-.763-.742c-.055-.926-.083-1.858-.083-2.77q0-.766.025-1.518a.766.766,0,1,1,1.529.055q-.024.726-.024,1.463c0,.88.027,1.779.08,2.673a.782.782,0,0,1-.717.837l-.048,0m.3-8.408a.772.772,0,0,1-.108-.008.787.787,0,0,1-.651-.893,37.629,37.629,0,0,1,.82-4.221.761.761,0,0,1,.935-.562.793.793,0,0,1,.544.966,35.959,35.959,0,0,0-.783,4.038.774.774,0,0,1-.757.68m21.37-3.01a8.992,8.992,0,0,1-2.444-.329,8.262,8.262,0,0,1-.844-.288.8.8,0,0,1-.434-1.024.757.757,0,0,1,.991-.448,6.664,6.664,0,0,0,.69.236,7.867,7.867,0,0,0,2.963.222.769.769,0,0,1,.841.7.784.784,0,0,1-.681.869,10.034,10.034,0,0,1-1.083.059m43.768-.668a.764.764,0,0,1-.7-.463c-.415-.94-.859-1.876-1.321-2.781a.8.8,0,0,1,.321-1.067.753.753,0,0,1,1.034.331c.475.932.932,1.894,1.359,2.862a.8.8,0,0,1-.379,1.046.74.74,0,0,1-.316.071m-38.91-.674a.76.76,0,0,1-.661-.392.8.8,0,0,1,.275-1.081,6.662,6.662,0,0,0,2.542-2.64.754.754,0,0,1,1.033-.332.8.8,0,0,1,.322,1.067,8.213,8.213,0,0,1-3.125,3.27.743.743,0,0,1-.385.108M1099.38,23.42a.754.754,0,0,1-.572-.264,12,12,0,0,1-2.216-3.864.8.8,0,0,1,.461-1.011.759.759,0,0,1,.979.476,10.391,10.391,0,0,0,1.918,3.347.808.808,0,0,1-.062,1.116.748.748,0,0,1-.509.2m-12.962-2.13a.743.743,0,0,1-.294-.061.8.8,0,0,1-.411-1.034,26.6,26.6,0,0,1,1.925-3.858.751.751,0,0,1,1.055-.248.8.8,0,0,1,.24,1.089,25.056,25.056,0,0,0-1.808,3.626.765.765,0,0,1-.706.486m59.655-2.029a.758.758,0,0,1-.647-.367c-.724-1.18-1.493-2.326-2.289-3.406a.808.808,0,0,1,.146-1.107.75.75,0,0,1,1.072.151c.821,1.116,1.616,2.3,2.362,3.517a.806.806,0,0,1-.237,1.09.746.746,0,0,1-.409.123m-32.1-1.251a.772.772,0,0,1-.753-.658,9.226,9.226,0,0,0-1.466-3.533.806.806,0,0,1,.2-1.1.751.751,0,0,1,1.064.2,10.831,10.831,0,0,1,1.712,4.162.788.788,0,0,1-.625.911.74.74,0,0,1-.13.011m-17.153-2.334a.742.742,0,0,1-.106-.007.786.786,0,0,1-.653-.891,10.311,10.311,0,0,1,1.627-4.2.75.75,0,0,1,1.061-.219.806.806,0,0,1,.212,1.1A8.719,8.719,0,0,0,1097.572,15a.774.774,0,0,1-.757.682m-6.032-1.449a.751.751,0,0,1-.531-.222.809.809,0,0,1-.019-1.117,16.791,16.791,0,0,1,3.319-2.764.752.752,0,0,1,1.051.265.805.805,0,0,1-.256,1.086,15.249,15.249,0,0,0-3.013,2.511.751.751,0,0,1-.551.241m50.349-1.662a.752.752,0,0,1-.564-.256,40.115,40.115,0,0,0-2.848-2.9.809.809,0,0,1-.063-1.116.747.747,0,0,1,1.08-.065,41.633,41.633,0,0,1,2.959,3.015.808.808,0,0,1-.047,1.116.749.749,0,0,1-.517.208m-31.616-1.37a.745.745,0,0,1-.423-.132,10.078,10.078,0,0,0-3.49-1.488.791.791,0,0,1-.583-.941.766.766,0,0,1,.912-.6,11.576,11.576,0,0,1,4.007,1.714.806.806,0,0,1,.214,1.1.757.757,0,0,1-.638.353M1097.69,9.945a.77.77,0,0,1-.737-.58.794.794,0,0,1,.535-.972,19.193,19.193,0,0,1,2.787-.569.8.8,0,0,1,.259-.533,24.456,24.456,0,0,1,3.407-2.555.751.751,0,0,1,1.051.265.805.805,0,0,1-.257,1.086,23.738,23.738,0,0,0-2.516,1.807.8.8,0,0,1,.257.552.781.781,0,0,1-.726.829,17.665,17.665,0,0,0-3.856.641.746.746,0,0,1-.2.029m37.346-2.957a.745.745,0,0,1-.44-.144,31.225,31.225,0,0,0-3.391-2.153.8.8,0,0,1-.319-1.068.753.753,0,0,1,1.034-.329,32.8,32.8,0,0,1,3.557,2.258.807.807,0,0,1,.185,1.1.758.758,0,0,1-.626.335M1107.962,4.27a.766.766,0,0,1-.7-.475.8.8,0,0,1,.4-1.04,32.951,32.951,0,0,1,3.926-1.471.762.762,0,0,1,.95.535.8.8,0,0,1-.519.981,31.372,31.372,0,0,0-3.746,1.4.742.742,0,0,1-.305.066m19.871-1.187a.741.741,0,0,1-.257-.046,24.115,24.115,0,0,0-3.816-1.063.788.788,0,0,1-.615-.92.768.768,0,0,1,.891-.634,25.545,25.545,0,0,1,4.053,1.128.8.8,0,0,1,.464,1.01.767.767,0,0,1-.721.525m-12.055-1.177a.773.773,0,0,1-.755-.669.787.787,0,0,1,.639-.9,25.753,25.753,0,0,1,3.622-.328c.127,0,.254,0,.381,0h.186a.778.778,0,0,1,.759.8.778.778,0,0,1-.765.783h-.18l-.356,0a24.288,24.288,0,0,0-3.412.31.762.762,0,0,1-.118.009" transform="translate(-1006.9 -0.005)" fill="#f4b545"/>
        <path id="Path_441" data-name="Path 441" d="M309.145,1767.155q-.212,0-.423-.006a.78.78,0,0,1-.745-.811.764.764,0,0,1,.785-.769,14.848,14.848,0,0,0,3.852-.42.766.766,0,0,1,.919.59.791.791,0,0,1-.572.949,16.357,16.357,0,0,1-3.817.467m-4.412-.721a.75.75,0,0,1-.23-.037,19.419,19.419,0,0,1-2.643-1.086.759.759,0,0,1-.5.307,23.507,23.507,0,0,1-4.2.233.78.78,0,0,1-.742-.813.771.771,0,0,1,.787-.766,23.285,23.285,0,0,0,3.067-.107.812.812,0,0,1,.073-.612.753.753,0,0,1,1.045-.288,17.891,17.891,0,0,0,3.577,1.625.8.8,0,0,1,.5.991.768.768,0,0,1-.729.553m-11.613-.992a.76.76,0,0,1-.126-.011,32.943,32.943,0,0,1-4.068-.964.8.8,0,0,1-.517-.982.759.759,0,0,1,.951-.534,31.537,31.537,0,0,0,3.883.921.787.787,0,0,1,.63.908.773.773,0,0,1-.754.661m23.513-.12a.764.764,0,0,1-.694-.457.8.8,0,0,1,.371-1.05,23.7,23.7,0,0,0,3.424-2.031.749.749,0,0,1,1.064.2.806.806,0,0,1-.2,1.1,25.243,25.243,0,0,1-3.645,2.161.743.743,0,0,1-.322.074m-11.458-.8a.765.765,0,0,1-.7-.476.8.8,0,0,1,.4-1.039,8.3,8.3,0,0,0,3.031-2.2.749.749,0,0,1,1.079-.081.808.808,0,0,1,.079,1.115,9.818,9.818,0,0,1-3.581,2.616.738.738,0,0,1-.3.065m-19.86-1.482a.748.748,0,0,1-.312-.069,26.119,26.119,0,0,1-3.211-1.754q-.241-.155-.479-.317a.806.806,0,0,1-.219-1.094.751.751,0,0,1,1.06-.226c.149.1.3.2.45.3a24.658,24.658,0,0,0,3.025,1.652.8.8,0,0,1,.386,1.044.764.764,0,0,1-.7.468m12.449-.849a.751.751,0,0,1-.544-.235,12.172,12.172,0,0,1-2.462-3.687.8.8,0,0,1,.4-1.04.757.757,0,0,1,1.007.41,10.62,10.62,0,0,0,2.147,3.206.808.808,0,0,1-.006,1.117.75.75,0,0,1-.538.228m25.6-1.59a.753.753,0,0,1-.566-.258.808.808,0,0,1,.05-1.116,34.541,34.541,0,0,0,2.781-2.951.748.748,0,0,1,1.079-.08.808.808,0,0,1,.077,1.115,36.1,36.1,0,0,1-2.907,3.085.75.75,0,0,1-.515.206m-44.819-2.183a.748.748,0,0,1-.524-.215,26.884,26.884,0,0,1-2.81-3.22.808.808,0,0,1,.141-1.108.749.749,0,0,1,1.073.146,25.262,25.262,0,0,0,2.646,3.033.808.808,0,0,1,.032,1.117.753.753,0,0,1-.557.248m31.7-.06a.765.765,0,0,1-.175-.021.792.792,0,0,1-.571-.949,10.728,10.728,0,0,0,.263-2.363,10.3,10.3,0,0,0-.112-1.522.787.787,0,0,1,.639-.9.77.77,0,0,1,.873.66,11.973,11.973,0,0,1,.13,1.764,12.382,12.382,0,0,1-.3,2.722.771.771,0,0,1-.744.611m-15.626-3.709a.777.777,0,0,1-.764-.77q0-.174,0-.349a10.643,10.643,0,0,1,.756-4.1.757.757,0,0,1,1.005-.413.8.8,0,0,1,.4,1.037,9.161,9.161,0,0,0-.632,3.481c0,.1,0,.206,0,.307a.779.779,0,0,1-.745.81h-.021m34.089-.392a.745.745,0,0,1-.437-.142.807.807,0,0,1-.19-1.1c.751-1.113,1.467-2.292,2.128-3.5a.752.752,0,0,1,1.042-.3.8.8,0,0,1,.292,1.076c-.685,1.256-1.427,2.479-2.206,3.634a.758.758,0,0,1-.629.338m-55.13-2.484a.761.761,0,0,1-.668-.4,34.477,34.477,0,0,1-1.8-3.89.8.8,0,0,1,.424-1.028.757.757,0,0,1,1,.437,32.784,32.784,0,0,0,1.715,3.708.8.8,0,0,1-.294,1.076.742.742,0,0,1-.373.1m35.333-1.479a.756.756,0,0,1-.622-.328,7.209,7.209,0,0,0-.458-.589,8.159,8.159,0,0,0-2.368-1.845.8.8,0,0,1-.337-1.062.754.754,0,0,1,1.028-.347,9.7,9.7,0,0,1,2.817,2.2,8.766,8.766,0,0,1,.56.719.807.807,0,0,1-.174,1.1.747.747,0,0,1-.446.149m-10.949-2.867a.761.761,0,0,1-.667-.4.8.8,0,0,1,.291-1.077,7.768,7.768,0,0,1,3.906-1h0c.145,0,.291,0,.437.011a.781.781,0,0,1,.727.827.768.768,0,0,1-.8.751,1.652,1.652,0,0,0-.366-.009,6.268,6.268,0,0,0-3.155.8.743.743,0,0,1-.375.1m-27.446-3.444a.769.769,0,0,1-.737-.58c-.362-1.351-.665-2.761-.9-4.19a.788.788,0,0,1,.626-.911.768.768,0,0,1,.883.647c.226,1.377.518,2.734.866,4.034a.793.793,0,0,1-.533.972.741.741,0,0,1-.2.029m-1.377-8.293a.776.776,0,0,1-.762-.73c-.091-1.239-.137-2.51-.137-3.78l0-.5a.778.778,0,0,1,.765-.783h.008a.778.778,0,0,1,.758.8l0,.484c0,1.23.045,2.461.133,3.66a.782.782,0,0,1-.705.848l-.059,0m.073-8.417c-.023,0-.046,0-.069,0a.784.784,0,0,1-.694-.858c.091-1.044.213-2.107.363-3.159a.772.772,0,0,1,.868-.667.787.787,0,0,1,.646.9c-.146,1.023-.264,2.056-.352,3.071a.775.775,0,0,1-.761.72" transform="translate(-249.349 -1597.326)" fill="#3b82f4"/>
        <g id="Group_1027" data-name="Group 1027" transform="translate(8.131 102.042)" opacity="0.25" style="mix-blend-mode: multiply;isolation: isolate">
          <g id="Group_1026" data-name="Group 1026">
            <g id="Group_1025" data-name="Group 1025" clip-path="url(#clip-path-7)">
              <path id="Path_442" data-name="Path 442" d="M142.454,1410.414a14.342,14.342,0,0,0-20.151-4.727,15.381,15.381,0,0,0-4.577,20.808,14.343,14.343,0,0,0,20.151,4.727,15.382,15.382,0,0,0,4.577-20.809" transform="translate(-115.476 -1403.364)" fill="#4786d1"/>
            </g>
          </g>
        </g>
        <path id="Path_443" data-name="Path 443" d="M123.2,1371.1a14.342,14.342,0,0,0-20.151-4.727,15.381,15.381,0,0,0-4.577,20.808,14.342,14.342,0,0,0,20.151,4.727A15.381,15.381,0,0,0,123.2,1371.1" transform="translate(-89.449 -1264.865)" fill="#3b82f4"/>
        <path id="Path_444" data-name="Path 444" d="M221.248,1478.785l-10.737.165.052,3.64h0l.107,7.45,3.525-.054-.066-4.591,8.151,8.171,2.727-2.9-8.153-8.172,4.446-.068Z" transform="translate(-195.688 -1371.259)" fill="#fff"/>
        <path id="Path_445" data-name="Path 445" d="M2371.693,558.1l2.338-1.269a.727.727,0,0,1,1.048.786l-.447,2.689a.76.76,0,0,0,.208.66l1.892,1.9a.752.752,0,0,1-.4,1.272l-2.614.392a.725.725,0,0,0-.544.408L2372,567.39a.712.712,0,0,1-1.295,0l-1.169-2.446a.724.724,0,0,0-.543-.408l-2.614-.392a.752.752,0,0,1-.4-1.272l1.892-1.9a.76.76,0,0,0,.208-.66l-.447-2.689a.727.727,0,0,1,1.048-.786l2.338,1.269a.7.7,0,0,0,.672,0" transform="translate(-2199.179 -516.262)" fill="#4786d1"/>
        <path id="Path_446" data-name="Path 446" d="M1760.629,2105.705a5.9,5.9,0,1,1,5.712-5.9,5.814,5.814,0,0,1-5.712,5.9m0-10.175a4.278,4.278,0,1,0,4.141,4.276,4.215,4.215,0,0,0-4.141-4.276" transform="translate(-1631.345 -1941.654)" fill="#4786d1"/>
        <path id="Path_447" data-name="Path 447" d="M1800.543,2136.723a2.911,2.911,0,1,1-2.909-3,2.958,2.958,0,0,1,2.909,3" transform="translate(-1668.35 -1978.571)" fill="#4786d1"/>
        <path id="Path_448" data-name="Path 448" d="M538.649,26.842a4.841,4.841,0,1,1-4.839-5,4.919,4.919,0,0,1,4.839,5" transform="translate(-491.725 -20.257)" fill="#4786d1"/>
        <g id="Group_1030" data-name="Group 1030" transform="translate(131.909 18.605)" opacity="0.25" style="mix-blend-mode: multiply;isolation: isolate">
          <g id="Group_1029" data-name="Group 1029">
            <g id="Group_1028" data-name="Group 1028" clip-path="url(#clip-path-8)">
              <path id="Path_449" data-name="Path 449" d="M1890.113,256.268a13.556,13.556,0,0,0-16.393,10.313,14.047,14.047,0,0,0,9.987,16.928A13.556,13.556,0,0,0,1900.1,273.2a14.047,14.047,0,0,0-9.987-16.928" transform="translate(-1873.333 -255.869)" fill="#4786d1"/>
            </g>
          </g>
        </g>
        <path id="Path_450" data-name="Path 450" d="M1881.308,244.673a14.047,14.047,0,0,0-9.987-16.928,13.556,13.556,0,0,0-16.393,10.313,14.047,14.047,0,0,0,9.987,16.928,13.556,13.556,0,0,0,16.393-10.313" transform="translate(-1723.955 -210.815)" fill="#f4b545"/>
        <path id="Path_451" data-name="Path 451" d="M1946.213,323.039l2.722,2.476a.987.987,0,0,0,1.645-.7l.248-3.737a1.028,1.028,0,0,1,.484-.811l3.122-1.908a1.039,1.039,0,0,0-.135-1.831l-3.365-1.4a1.015,1.015,0,0,1-.6-.726l-.792-3.655a.981.981,0,0,0-1.728-.433l-2.328,2.873a.976.976,0,0,1-.853.362l-3.611-.351a1.022,1.022,0,0,0-.933,1.563l1.927,3.174a1.053,1.053,0,0,1,.07.95l-1.439,3.438a1.013,1.013,0,0,0,1.151,1.4l3.518-.911a.968.968,0,0,1,.9.225" transform="translate(-1803.336 -287.413)" fill="#fff"/>
      </g>
    </g>
  </g>
</svg>
