<svg id="Group_1808" data-name="Group 1808" xmlns="http://www.w3.org/2000/svg" xmlns:xlink="http://www.w3.org/1999/xlink" width="283.5" height="194.086" viewBox="0 0 283.5 194.086">
  <defs>
    <clipPath id="clip-path">
      <rect id="Rectangle_2339" data-name="Rectangle 2339" width="283.5" height="194.086" fill="none"/>
    </clipPath>
    <clipPath id="clip-path-3">
      <rect id="Rectangle_2321" data-name="Rectangle 2321" width="283.5" height="14.322" fill="none"/>
    </clipPath>
    <clipPath id="clip-path-4">
      <rect id="Rectangle_2322" data-name="Rectangle 2322" width="13.637" height="24.013" fill="none"/>
    </clipPath>
    <clipPath id="clip-path-5">
      <rect id="Rectangle_2323" data-name="Rectangle 2323" width="8.316" height="6.356" fill="none"/>
    </clipPath>
    <clipPath id="clip-path-6">
      <rect id="Rectangle_2324" data-name="Rectangle 2324" width="9.691" height="8.367" fill="none"/>
    </clipPath>
    <clipPath id="clip-path-7">
      <rect id="Rectangle_2325" data-name="Rectangle 2325" width="24.169" height="61.262" fill="none"/>
    </clipPath>
    <clipPath id="clip-path-8">
      <rect id="Rectangle_2326" data-name="Rectangle 2326" width="5.871" height="10.078" fill="none"/>
    </clipPath>
    <clipPath id="clip-path-9">
      <rect id="Rectangle_2327" data-name="Rectangle 2327" width="10.167" height="10.496" fill="none"/>
    </clipPath>
    <clipPath id="clip-path-10">
      <rect id="Rectangle_2328" data-name="Rectangle 2328" width="4.219" height="5.308" fill="none"/>
    </clipPath>
    <clipPath id="clip-path-11">
      <rect id="Rectangle_2329" data-name="Rectangle 2329" width="4.229" height="5.251" fill="none"/>
    </clipPath>
    <clipPath id="clip-path-12">
      <rect id="Rectangle_2330" data-name="Rectangle 2330" width="6.74" height="5.902" fill="none"/>
    </clipPath>
    <clipPath id="clip-path-13">
      <path id="Path_1255" data-name="Path 1255" d="M161.464,119.209l12.605,25.577a1.4,1.4,0,0,0,1.252.779l37.78.035a1.4,1.4,0,0,0,1.254-2.014L201.75,118.009a1.4,1.4,0,0,0-1.251-.779l-37.78-.035a1.4,1.4,0,0,0-1.254,2.014" transform="translate(-161.319 -117.195)" fill="none"/>
    </clipPath>
    <linearGradient id="linear-gradient" x1="-1.357" y1="2.58" x2="-1.348" y2="2.58" gradientUnits="objectBoundingBox">
      <stop offset="0" stop-color="#d1d1d1"/>
      <stop offset="1" stop-color="#b3b3b3"/>
    </linearGradient>
    <clipPath id="clip-path-15">
      <rect id="Rectangle_2333" data-name="Rectangle 2333" width="11.595" height="0.38" fill="none"/>
    </clipPath>
    <clipPath id="clip-path-16">
      <rect id="Rectangle_2334" data-name="Rectangle 2334" width="14.298" height="0.528" fill="none"/>
    </clipPath>
    <clipPath id="clip-path-17">
      <rect id="Rectangle_2335" data-name="Rectangle 2335" width="219.355" height="7.53" fill="none"/>
    </clipPath>
    <clipPath id="clip-path-18">
      <rect id="Rectangle_2336" data-name="Rectangle 2336" width="25.39" height="17.166" fill="none"/>
    </clipPath>
    <clipPath id="clip-path-19">
      <rect id="Rectangle_2337" data-name="Rectangle 2337" width="6.847" height="13.694" fill="none"/>
    </clipPath>
  </defs>
  <g id="Group_1709" data-name="Group 1709" clip-path="url(#clip-path)">
    <g id="Group_1689" data-name="Group 1689">
      <g id="Group_1688" data-name="Group 1688" clip-path="url(#clip-path)">
        <g id="Group_1660" data-name="Group 1660" transform="translate(0 179.763)" opacity="0.15">
          <g id="Group_1659" data-name="Group 1659">
            <g id="Group_1658" data-name="Group 1658" clip-path="url(#clip-path-3)">
              <path id="Path_1150" data-name="Path 1150" d="M283.5,361.906a1410.8,1410.8,0,0,1-141.75,7.161A1410.8,1410.8,0,0,1,0,361.906a1406.482,1406.482,0,0,1,283.5,0" transform="translate(0 -354.745)" fill="#42210b"/>
            </g>
          </g>
        </g>
        <path id="Path_1151" data-name="Path 1151" d="M283.165,99.385s-3.8-1.027-7.57,4.649-10.94,24-12.788,25.313-29.078,3.674-29.078,3.674v4.307s29.375-.849,31.662-1.417,13.438-26.089,13.438-26.089Z" transform="translate(-115.29 -48.987)" fill="#e39f83"/>
        <g id="Group_1663" data-name="Group 1663" transform="translate(154.239 50.325)" opacity="0.49">
          <g id="Group_1662" data-name="Group 1662">
            <g id="Group_1661" data-name="Group 1661" clip-path="url(#clip-path-4)">
              <path id="Path_1152" data-name="Path 1152" d="M310.442,104.035a109.492,109.492,0,0,0-6.067,12.008,11.137,11.137,0,0,1,2.5,3.9,9.694,9.694,0,0,1,.623,3.384c3.2-6.672,6.183-13.5,6.183-13.5l4.336-10.437s-3.8-1.027-7.57,4.649" transform="translate(-304.375 -99.312)" fill="#de8f78"/>
            </g>
          </g>
        </g>
        <path id="Path_1153" data-name="Path 1153" d="M313.982,112.047c1.04-2.221,1.7-3.676,1.7-3.676l4.424-12a10.517,10.517,0,0,0-8.534,5.091,74.966,74.966,0,0,0-4.1,7.516c2.083.873,4.422,2.193,6.5,3.07" transform="translate(-151.667 -47.535)" fill="#e24723"/>
        <path id="Path_1154" data-name="Path 1154" d="M379.809,264.134s-1.387-.342-1.007,1.065,1.673.342,1.673.342Z" transform="translate(-186.815 -130.269)" fill="#545454"/>
        <path id="Path_1155" data-name="Path 1155" d="M400.008,307.458c-.114,0-1.576.276-1.179,1.179.571,1.292,1.863.408,1.863.408Z" transform="translate(-196.693 -151.657)" fill="#545454"/>
        <path id="Path_1156" data-name="Path 1156" d="M310.932,264.94c.114-.092,1.339.3.655,1.439s-1.311-.087-1.311-.087Z" transform="translate(-153.046 -130.678)" fill="#545454"/>
        <path id="Path_1157" data-name="Path 1157" d="M289.759,307.758s2.078.335,1.546,1.441-2.015.232-2.015.232Z" transform="translate(-142.695 -151.805)" fill="#545454"/>
        <path id="Path_1158" data-name="Path 1158" d="M303.169,254.553h0a1.223,1.223,0,0,1-.828-1.785l3.807-8.383a1.993,1.993,0,0,1,2.141-1.106,1.223,1.223,0,0,1,.829,1.785l-3.808,8.383a1.992,1.992,0,0,1-2.142,1.106" transform="translate(-149.065 -119.98)" fill="#aaa"/>
        <path id="Path_1159" data-name="Path 1159" d="M357.766,257.151l.512-.063a1.112,1.112,0,0,0,.965-1.235l-1.572-12.84a1.112,1.112,0,0,0-1.235-.965l-.512.063a1.112,1.112,0,0,0-.965,1.235l1.572,12.84a1.112,1.112,0,0,0,1.235.965" transform="translate(-175.083 -119.389)" fill="#aaa"/>
        <path id="Path_1160" data-name="Path 1160" d="M285.6,185.859c6.175-.62,11.369-4.077,13.517-8.986,5.17-11.815,10.718-35.232,34.077-33.617l5.464,2.83c-1.692,7.673,6.473,38.477-7.431,47.189-12.621,7.907-60.066,5.17-75.373-3.637,0,0,.234-2.02,15.157-2.8,6.008-.316,10.795-.593,14.59-.974" transform="translate(-126.204 -70.623)" fill="#c4c4c4"/>
        <path id="Path_1161" data-name="Path 1161" d="M279.4,178.308c6.175-.62,11.369-4.077,13.517-8.986,5.17-11.815,7.232-35.8,30.591-34.189,0,0,15.911-.629,12.035,8.786s3.063,35.473-8.155,39.69-59.815,4.942-70.607,2.986-6.893-6.528,8.029-7.312c6.008-.316,10.795-.593,14.59-.974" transform="translate(-123.63 -66.617)" fill="#e2e2e2"/>
        <path id="Path_1162" data-name="Path 1162" d="M280.239,262.125h5.6a.832.832,0,0,1,.751,1.188l-24.976,51.155a.832.832,0,0,1-1.532-.643l19.375-51.156a.832.832,0,0,1,.78-.544" transform="translate(-128.264 -129.296)" fill="#ceac91"/>
        <path id="Path_1163" data-name="Path 1163" d="M261.135,363.276l-1.847.013a2.778,2.778,0,0,0-1.2,1.887l3.54-.1a1.81,1.81,0,0,0-.495-1.8" transform="translate(-127.306 -179.19)" fill="#545454"/>
        <path id="Path_1164" data-name="Path 1164" d="M261.352,367.021h-4.147a.27.27,0,0,1-.269-.269v-.125a.27.27,0,0,1,.269-.27h4.147a.27.27,0,0,1,.269.27v.125a.27.27,0,0,1-.269.269" transform="translate(-126.736 -180.709)" fill="#545454"/>
        <path id="Path_1165" data-name="Path 1165" d="M326.448,367.021H322.3a.27.27,0,0,1-.269-.269v-.125a.27.27,0,0,1,.269-.27h4.146a.27.27,0,0,1,.269.27v.125a.27.27,0,0,1-.269.269" transform="translate(-158.846 -180.709)" fill="#545454"/>
        <path id="Path_1166" data-name="Path 1166" d="M382.127,254.553h0a1.223,1.223,0,0,0,.828-1.785l-3.807-8.383a1.992,1.992,0,0,0-2.141-1.106,1.223,1.223,0,0,0-.829,1.785l3.808,8.383a1.992,1.992,0,0,0,2.141,1.106" transform="translate(-185.486 -119.98)" fill="#aaa"/>
        <path id="Path_1167" data-name="Path 1167" d="M385.991,262.125h-5.6a.832.832,0,0,0-.751,1.188l24.976,51.155a.832.832,0,0,0,1.532-.643l-19.375-51.156a.832.832,0,0,0-.78-.544" transform="translate(-187.221 -129.296)" fill="#ceac91"/>
        <path id="Path_1168" data-name="Path 1168" d="M427.524,363.276l1.847.013a2.778,2.778,0,0,1,1.2,1.887l-3.54-.1a1.809,1.809,0,0,1,.495-1.8" transform="translate(-210.607 -179.19)" fill="#545454"/>
        <path id="Path_1169" data-name="Path 1169" d="M359.872,263.007l.19,51a.945.945,0,0,1-.982.936.959.959,0,0,1-.973-.791l-5.925-51a.936.936,0,0,1,.973-1.027h5.735a.95.95,0,0,1,.982.882" transform="translate(-173.713 -129.296)" fill="#ceac91"/>
        <path id="Path_1170" data-name="Path 1170" d="M363.237,363.173h2.05a3.094,3.094,0,0,1,1.27,1.952l-3.539-.1s-.59-1.265.219-1.848" transform="translate(-178.96 -179.139)" fill="#545454"/>
        <path id="Path_1171" data-name="Path 1171" d="M346.525,279.611l-27.083-29.664-28.459,30.3c.293.122.557,0,.815.178l27.631-29.141,26.345,28.559c.23-.2.478-.072.75-.228" transform="translate(-143.53 -123.289)" fill="#545454"/>
        <path id="Path_1172" data-name="Path 1172" d="M426.251,367.021H430.4a.27.27,0,0,0,.269-.269v-.125a.27.27,0,0,0-.269-.27h-4.146a.27.27,0,0,0-.269.27v.125a.27.27,0,0,0,.269.269" transform="translate(-210.12 -180.709)" fill="#545454"/>
        <path id="Path_1173" data-name="Path 1173" d="M362.154,367.021H366.3a.27.27,0,0,0,.269-.269v-.125a.27.27,0,0,0-.269-.27h-4.146a.27.27,0,0,0-.269.27v.125a.27.27,0,0,0,.269.269" transform="translate(-178.504 -180.709)" fill="#545454"/>
        <path id="Path_1174" data-name="Path 1174" d="M345.866,265.074l-.1-.121L319.408,287l-7.667-21.041a4.267,4.267,0,0,1-.771.347c-.021.011-.043.018-.063.028l8.09,22.2,27.113-22.682a6.188,6.188,0,0,1-.242-.781" transform="translate(-153.358 -130.691)" fill="#545454"/>
        <path id="Path_1175" data-name="Path 1175" d="M330.209,258.115l-.512-.063a1.112,1.112,0,0,1-.965-1.235l1.451-11.849a1.112,1.112,0,0,1,1.235-.965l.512.062a1.112,1.112,0,0,1,.966,1.235l-1.451,11.849a1.112,1.112,0,0,1-1.235.965" transform="translate(-162.146 -120.353)" fill="#aaa"/>
        <path id="Path_1176" data-name="Path 1176" d="M324.8,263.007l.317,51a.945.945,0,0,0,.982.936.959.959,0,0,0,.973-.791l5.419-51a.936.936,0,0,0-.973-1.027h-5.735a.951.951,0,0,0-.982.882" transform="translate(-160.21 -129.296)" fill="#ceac91"/>
        <path id="Path_1177" data-name="Path 1177" d="M326.278,363.173h-2.05a3.094,3.094,0,0,0-1.27,1.952l3.539-.1s.59-1.265-.219-1.848" transform="translate(-159.302 -179.139)" fill="#545454"/>
        <path id="Path_1178" data-name="Path 1178" d="M343.507,249.92s-1.787,2.191,1.483,2.065,1.787-2.065,1.787-2.065a3.231,3.231,0,0,0-1.711-.456,3.184,3.184,0,0,0-1.559.456" transform="translate(-169.198 -123.05)" fill="#545454"/>
        <path id="Path_1179" data-name="Path 1179" d="M234.861,346.03c.569-.345,1.137-.69,1.688-1.047,1.653-1.07,3.929-2.086,5.5-3.474-.445-1.289-.862-2.4-.939-2.736-.505-2.223.948-9.651.948-9.651l-7.163-.341s-1.516,7.921-3.234,9.462a24.41,24.41,0,0,1-5.2,2.16c2.842,1.807,5.631,3.7,8.4,5.628" transform="translate(-111.707 -162.174)" fill="#e5a185"/>
        <g id="Group_1666" data-name="Group 1666" transform="translate(122.039 166.606)" opacity="0.42">
          <g id="Group_1665" data-name="Group 1665">
            <g id="Group_1664" data-name="Group 1664" clip-path="url(#clip-path-5)">
              <path id="Path_1180" data-name="Path 1180" d="M240.831,333.572c.7-2.407,1.153-4.792,1.153-4.792l7.163.341s-.624,3.19-.912,6.014a6.2,6.2,0,0,0-7.4-1.564" transform="translate(-240.831 -328.78)" fill="#d58a73"/>
            </g>
          </g>
        </g>
        <path id="Path_1181" data-name="Path 1181" d="M218.984,350.559c-1.4-1.258-5.04-7.6-6.464-4.179-3,2.507-19.084,6.566-18.159,8.7.36.828,31.984.531,32.857-.212.714-.609-.724-5.285-1.462-7.449-1.624.878-5.983,3.854-6.772,3.144" transform="translate(-95.852 -170.362)" fill="#8c776d"/>
        <path id="Path_1182" data-name="Path 1182" d="M193.888,363.423s2.769.836,19.7.552c13.267-.222,13.391-1.069,13.391-1.069s4.923,1.95-13.506,2.109-21.354-.318-19.583-1.592" transform="translate(-95.417 -179.007)" fill="#efefef"/>
        <path id="Path_1183" data-name="Path 1183" d="M299.115,345.98c.592-.359,1.183-.719,1.757-1.09,1.72-1.114,4.09-2.171,5.728-3.616-.464-1.342-.9-2.5-.978-2.847-.526-2.314-3.178-10.917-3.178-10.917l-7.455-.355s2.587,9.116.8,10.72a25.37,25.37,0,0,1-5.411,2.248c2.958,1.881,5.861,3.849,8.738,5.858" transform="translate(-143.231 -161.372)" fill="#e5a185"/>
        <g id="Group_1669" data-name="Group 1669" transform="translate(151.758 165.782)" opacity="0.42">
          <g id="Group_1668" data-name="Group 1668">
            <g id="Group_1667" data-name="Group 1667" clip-path="url(#clip-path-6)">
              <path id="Path_1184" data-name="Path 1184" d="M300.907,335.522a38.8,38.8,0,0,0-1.428-8.367l7.455.355s1.278,4.146,2.236,7.456c-2.484-1.331-6.181-1.3-8.263.556" transform="translate(-299.479 -327.155)" fill="#d58a73"/>
            </g>
          </g>
        </g>
        <path id="Path_1185" data-name="Path 1185" d="M284.119,352.2c-1.475-1.285-5.324-7.763-6.828-4.268-3.17,2.561-18.645,4.43-18.045,8.88.124.919,32.649.543,33.57-.216.755-.621-.765-5.4-1.545-7.607-1.716.9-6.32,3.936-7.153,3.211" transform="translate(-127.868 -171.114)" fill="#988378"/>
        <path id="Path_1186" data-name="Path 1186" d="M258.639,365.333s1.788.853,19.671.564c14.014-.227,14.145-1.093,14.145-1.093s5.2,1.991-14.267,2.154-21.419-.325-19.548-1.626" transform="translate(-127.3 -179.943)" fill="#f4f4f4"/>
        <path id="Path_1187" data-name="Path 1187" d="M341.354,4.83s4.064-7.307,15.311-3.945c10.485,3.134,4.908,40.057-.5,63.984l-23.779-.655s1.3-54.31,8.97-59.384" transform="translate(-163.952 0)" fill="#3f2423"/>
        <g id="Group_1672" data-name="Group 1672" transform="translate(168.432 3.519)" opacity="0.24">
          <g id="Group_1671" data-name="Group 1671">
            <g id="Group_1670" data-name="Group 1670" clip-path="url(#clip-path-7)">
              <path id="Path_1188" data-name="Path 1188" d="M354.337,15.825c-3.2-4.058-6.9-7.63-11.958-8.881a1.937,1.937,0,0,0-1.025,1.31c-7.675,5.074-8.971,59.384-8.971,59.384l13.98.567c4.231-16.173,9.384-30.393,10.19-46.021-.715-3.1-.164-3.761-2.216-6.36" transform="translate(-332.384 -6.944)"/>
            </g>
          </g>
        </g>
        <path id="Path_1189" data-name="Path 1189" d="M340.75,74.929a3.468,3.468,0,0,1,3.141,3.734l-.261,8.452c0,.041-.007.08-.009.121l-6.492-.516.254-8.249a3.48,3.48,0,0,1,3.367-3.542" transform="translate(-166.292 -36.959)" fill="#d78c74"/>
        <path id="Path_1190" data-name="Path 1190" d="M332.206,96.308a88.376,88.376,0,0,1,10.521-.142c-.766,1.973-1.543,3.8-2.352,5.756q-2.02-.226-4.043-.445c-1.622-.176-3.268-.436-4.921-.7.1-1.559.97-2.953.8-4.473" transform="translate(-163.472 -47.387)" fill="#d78c74"/>
        <path id="Path_1191" data-name="Path 1191" d="M304.294,112.641c-.329-2.634,10.574-16.469,10.574-16.469a26.246,26.246,0,0,1,3.046-.307c-.622,1.765-1.579,3.14,1.511,3.184,4.667.067,6.454-1.979,6.724-3.3a18.991,18.991,0,0,1,6.087,1.263s-5.105,21.485-4.578,25.373c.492,3.633,14.968,14.2,19.054,32.072-16.4,5.41-36.62-1.591-47.419-2.523,3.238-2.975,7.317-32.7,7.317-32.7a23.3,23.3,0,0,1-2.316-6.588" transform="translate(-147.629 -47.23)" fill="#f05022"/>
        <path id="Path_1192" data-name="Path 1192" d="M333.22,3.7c-5.525-.224-19.028,2.221-19.5,23.614-.493,22.529,17.886,18.748,17.886,18.748s12.929-.4,15.664-19.544S339.441,3.951,333.22,3.7" transform="translate(-154.743 -1.818)" fill="#492a27"/>
        <path id="Path_1193" data-name="Path 1193" d="M327.775,50.985a12.56,12.56,0,0,1-6.167-1.634c-8.769-4.864-9.915-18.708-5.486-27.589l.069-.137a20.653,20.653,0,0,1,1.76-2.873A17.853,17.853,0,0,1,326.877,12a14.561,14.561,0,0,1,4.99-.635c9.958.449,14.624,12.054,13.462,21.526-1.127,9.189-9.005,18.079-17.555,18.09" transform="translate(-154.686 -5.6)" fill="#e5a185"/>
        <path id="Path_1194" data-name="Path 1194" d="M374.017,57.5c-.887,2.295-2.821,3.663-4.318,3.058s-1.993-2.957-1.106-5.251,2.821-3.664,4.318-3.058S374.9,55.2,374.017,57.5" transform="translate(-181.595 -25.699)" fill="#e5a185"/>
        <path id="Path_1195" data-name="Path 1195" d="M348.558,62.326c-2.975,6.157-8.638,15.577-22.949,10.54a13.05,13.05,0,0,0,1.923,1.313,12.559,12.559,0,0,0,6.167,1.634c6.114-.007,11.883-4.556,15.086-10.507,1.488.536,3.374-.822,4.248-3.08.068-.178.126-.357.178-.535-.279.307-2.074,3.806-4.653.635" transform="translate(-160.61 -30.43)" fill="#d78c74"/>
        <path id="Path_1196" data-name="Path 1196" d="M371.685,57.663s.778-3.759,3.381-2.7a3.355,3.355,0,0,0-1.808,2.977Z" transform="translate(-183.338 -27.018)" fill="#d78c74"/>
        <path id="Path_1197" data-name="Path 1197" d="M333.229,3.7c-5.526-.224-19.028,2.221-19.5,23.614,0,0,1.264-9.65,7.48-14.194,4.012-2.933,5.568,2.083,8.509,2,5.71-.169,6.951-3.846,10.5-1.019,2.19,1.745,2.39,11.579,2.766,14.4.33,2.482,2.5-.274,2.5-.274C348.222,9.08,339.45,3.951,333.229,3.7" transform="translate(-154.752 -1.818)" fill="#492a27"/>
        <g id="Group_1675" data-name="Group 1675" transform="translate(163.812 3.776)" opacity="0.08">
          <g id="Group_1674" data-name="Group 1674">
            <g id="Group_1673" data-name="Group 1673" clip-path="url(#clip-path-8)">
              <path id="Path_1198" data-name="Path 1198" d="M323.267,17.53a14.24,14.24,0,0,1,2.649-2.554c.074-.055.147-.1.22-.15a18.667,18.667,0,0,1,3-7.374,16.576,16.576,0,0,0-4.479,3.286,26.731,26.731,0,0,0-1.392,6.792" transform="translate(-323.267 -7.452)" fill="#fff"/>
            </g>
          </g>
        </g>
        <g id="Group_1678" data-name="Group 1678" transform="translate(169.659 1.868)" opacity="0.08">
          <g id="Group_1677" data-name="Group 1677">
            <g id="Group_1676" data-name="Group 1676" clip-path="url(#clip-path-9)">
              <path id="Path_1199" data-name="Path 1199" d="M344.04,4.516c.305-.243.617-.468.932-.685a12.524,12.524,0,0,0-1.349-.132,18.207,18.207,0,0,0-3.669.241c-.175.167-.355.325-.524.5a19.1,19.1,0,0,0-4.625,7.87,10.163,10.163,0,0,1,2.955,1.871,18.292,18.292,0,0,1,6.281-9.667" transform="translate(-334.805 -3.686)" fill="#fff"/>
            </g>
          </g>
        </g>
        <path id="Path_1200" data-name="Path 1200" d="M339.85,67.84l-9.739-.245a.98.98,0,0,0-.818,1.3c.883,2.927,2.886,4.974,5.318,5.035s4.673-1.878,5.9-4.753a.919.919,0,0,0-.661-1.341" transform="translate(-162.405 -33.342)" fill="#fff"/>
        <path id="Path_1201" data-name="Path 1201" d="M354.879,48.042c-1.169-.12-2.318,1.2-2.568,2.948s.495,3.262,1.663,3.381,2.318-1.2,2.568-2.947-.495-3.262-1.663-3.382" transform="translate(-173.757 -23.693)" fill="#381911"/>
        <g id="Group_1681" data-name="Group 1681" transform="translate(178.506 25.378)" opacity="0.09">
          <g id="Group_1680" data-name="Group 1680">
            <g id="Group_1679" data-name="Group 1679" clip-path="url(#clip-path-10)">
              <path id="Path_1202" data-name="Path 1202" d="M356.3,52.625c-1.077-.852-2.177-1.678-3.246-2.543a4.4,4.4,0,0,0-.74,1.918c-.25,1.748.5,3.261,1.663,3.381,1.092.111,2.167-1.034,2.507-2.611l-.185-.145" transform="translate(-352.263 -50.081)" fill="#fff"/>
            </g>
          </g>
        </g>
        <path id="Path_1203" data-name="Path 1203" d="M325.013,46.816c-1.174-.07-2.27,1.3-2.449,3.051s.628,3.233,1.8,3.3,2.27-1.3,2.449-3.051-.628-3.233-1.8-3.3" transform="translate(-159.096 -23.091)" fill="#381911"/>
        <g id="Group_1684" data-name="Group 1684" transform="translate(163.443 24.83)" opacity="0.09">
          <g id="Group_1683" data-name="Group 1683">
            <g id="Group_1682" data-name="Group 1682" clip-path="url(#clip-path-11)">
              <path id="Path_1204" data-name="Path 1204" d="M326.577,51.4c-1.112-.8-2.247-1.582-3.351-2.4a4.389,4.389,0,0,0-.662,1.945c-.178,1.754.628,3.233,1.8,3.3,1.1.065,2.126-1.124,2.4-2.712l-.191-.137" transform="translate(-322.539 -49)" fill="#fff"/>
            </g>
          </g>
        </g>
        <path id="Path_1205" data-name="Path 1205" d="M251.247,319.692c-.095.19-.712,7.422-2.6,7.8s-6.841.112-7.519-1.136.416-7.246.416-7.246Z" transform="translate(-118.828 -157.405)" fill="#7c6860"/>
        <path id="Path_1206" data-name="Path 1206" d="M284.018,205.366s-36.192-3.51-40.551,4.726c-3.657,6.91-6.481,39.655-7.3,50.514a3.078,3.078,0,0,0,3.073,3.307h8.941a4.22,4.22,0,0,0,4.171-3.559c1.445-9.116,5.433-31.443,8.405-36.753,3.695-6.6,23.255-18.236,23.255-18.236" transform="translate(-116.49 -100.932)" fill="#8c776d"/>
        <path id="Path_1207" data-name="Path 1207" d="M306.7,321.818c.154.12,2.028,6.427.758,7.534s-7.63,1.146-8.352.153-2.12-7.023-1.978-7.687,8.056-1.185,9.572,0" transform="translate(-146.559 -158.392)" fill="#8c776d"/>
        <path id="Path_1208" data-name="Path 1208" d="M333.043,207.8s3.962,11.478-.871,14.748-38.552.047-38.552.047l4.406,40.874A2.2,2.2,0,0,1,295.9,265.9l-9.469.237a4.263,4.263,0,0,1-4.254-3.271c-2.3-9.619-8.614-37.123-7.8-45.4,1-10.093,7.15-14.926,58.667-9.667" transform="translate(-135.303 -101.439)" fill="#988378"/>
        <path id="Path_1209" data-name="Path 1209" d="M312.421,233.908c0,.36.161,1.494.161,1.494,0,.791.133.882.18,1.669,3.791.737,9.757.205,17.213.422,23.225.675,30.3-8.911,30.3-8.911-9.3,5.278-34.973,5.5-47.853,5.325" transform="translate(-154.105 -112.751)" fill="#c4c4c4"/>
        <path id="Path_1210" data-name="Path 1210" d="M331.012,146.721h.355c.868,0,2.633.533,2.63,1.4v3.823c0,.868-1.78,1.732-2.648,1.73h-.356c-.868,0-1.936-.717-1.934-1.584l.37-3.8a1.583,1.583,0,0,1,1.582-1.573" transform="translate(-162.312 -72.372)" fill="#e39f83"/>
        <path id="Path_1211" data-name="Path 1211" d="M331.144,146.721h.355c.868,0,2.633.533,2.63,1.4v2.913a9.34,9.34,0,0,1-2.488.145,9.1,9.1,0,0,1-2.314-.478l.235-2.408a1.583,1.583,0,0,1,1.582-1.573" transform="translate(-162.444 -72.372)" fill="#de8f78"/>
        <path id="Path_1212" data-name="Path 1212" d="M323.1,156.567l4.905-.254c0-.006.908.141.909.136,1.516.068,4.43-.129,5.9,1.534a6.156,6.156,0,0,1,.853,1.279,1.909,1.909,0,0,0-.1.493H319.34c1.722-3.021,3.756-3.187,3.756-3.187" transform="translate(-157.518 -77.103)" fill="#e39f83"/>
        <path id="Path_1213" data-name="Path 1213" d="M319.612,156.495l.318-.017a3.88,3.88,0,0,0,.636.824,4.087,4.087,0,0,0,4.822.594,4.333,4.333,0,0,0,1.653-1.731,6.719,6.719,0,0,1,4.281,1.744,6.156,6.156,0,0,1,.853,1.279c-.254.5.654,12.449-.087,16.515-.059.323-.473.777-.382,1.084-2.992.293-14.2,1.347-19.431-1.773a46.852,46.852,0,0,0,2.666-14.982c.093-3.443,4.669-3.539,4.669-3.539" transform="translate(-154.033 -77.031)" fill="#feaa48"/>
        <path id="Path_1214" data-name="Path 1214" d="M332.2,190.9a.388.388,0,0,1,.385.44,18.423,18.423,0,0,1-.987,3.926c-.914.039-14.626,1.306-20.459-2.17l.505-2.2Z" transform="translate(-153.474 -94.163)" fill="#4c3528"/>
        <path id="Path_1215" data-name="Path 1215" d="M298.982,222.384l-2.44-.481.248-3.235,2.672-.225Z" transform="translate(-146.272 -107.749)" fill="#beb6a0"/>
        <path id="Path_1216" data-name="Path 1216" d="M290.766,223.191a1.961,1.961,0,0,0,.326.409,2.056,2.056,0,0,0,1.422.525h.027a1.733,1.733,0,0,0,.88-.262c1.138,1.035.685,4.023.685,4.023l-9.225-.537s-1.358-3.91,5.885-4.158" transform="translate(-140.471 -110.091)" fill="#593f2e"/>
        <path id="Path_1217" data-name="Path 1217" d="M294.032,231.758l-9.776-.617-.05-.808,9.845.126Z" transform="translate(-140.188 -113.614)" fill="#f2e9da"/>
        <path id="Path_1218" data-name="Path 1218" d="M295.547,222.939l.537-.021a1.934,1.934,0,0,0,1.157,1.014,1.574,1.574,0,0,0,1.318-.382l.617.6a.121.121,0,0,1-.021.2,2.907,2.907,0,0,1-2.258.118,2.331,2.331,0,0,1-1.462-1.371.123.123,0,0,1,.112-.163" transform="translate(-145.722 -109.957)" fill="#f2e9da"/>
        <path id="Path_1219" data-name="Path 1219" d="M289.621,225.909c-1.4.7-2.9-.558-3.562-1.35a6.872,6.872,0,0,1,4.187-1.667c.34.614.95,2.229-.625,3.017" transform="translate(-141.102 -109.944)" fill="#f2e9da"/>
        <path id="Path_1220" data-name="Path 1220" d="M301.655,193.494a28.921,28.921,0,0,1,12.209,1.592l.175.03c-.7,2.936-2.062,4.7-4.322,4.824-3.028.166-5.677.364-8.551.546,0,0-1.065,4.158-1.842,7.4l-4.409-.432c-.613-3.067-.316-13.306,6.739-13.962" transform="translate(-145.366 -95.385)" fill="#4c3528"/>
        <path id="Path_1221" data-name="Path 1221" d="M318.388,222.722l-2.6-.386.488-2.983,2.672-.225Z" transform="translate(-155.768 -108.087)" fill="#beb6a0"/>
        <path id="Path_1222" data-name="Path 1222" d="M310.193,223.191a1.961,1.961,0,0,0,.326.409,2.056,2.056,0,0,0,1.422.525h.027a1.733,1.733,0,0,0,.88-.262c1.138,1.035.685,4.023.685,4.023l-9.367-.432s-1.216-4.015,6.027-4.263" transform="translate(-149.995 -110.091)" fill="#593f2e"/>
        <path id="Path_1223" data-name="Path 1223" d="M313.608,231.758l-9.752-.441-.035-.857,9.9-.127Z" transform="translate(-149.863 -113.614)" fill="#f2e9da"/>
        <path id="Path_1224" data-name="Path 1224" d="M315.088,222.893l.516-.068a2.019,2.019,0,0,0,1.178,1.061,1.811,1.811,0,0,0,1.37-.322l.565.542a.121.121,0,0,1-.021.2,2.907,2.907,0,0,1-2.258.118,2.331,2.331,0,0,1-1.462-1.371.123.123,0,0,1,.113-.163" transform="translate(-155.361 -109.911)" fill="#f2e9da"/>
        <path id="Path_1225" data-name="Path 1225" d="M309.162,225.909c-1.4.7-2.9-.558-3.562-1.35a6.872,6.872,0,0,1,4.187-1.667c.34.614.95,2.229-.625,3.017" transform="translate(-150.74 -109.944)" fill="#f2e9da"/>
        <path id="Path_1226" data-name="Path 1226" d="M321.2,193.494a28.921,28.921,0,0,1,12.209,1.592l.175.03c-.7,2.936-2.062,4.7-4.322,4.824-3.028.166-5.677.364-8.551.546,0,0-.833,3.953-1.842,7.4l-4.409-.432c-.613-3.067-.316-13.306,6.739-13.962" transform="translate(-155.005 -95.385)" fill="#593f2e"/>
        <path id="Path_1227" data-name="Path 1227" d="M327.136,156.322s.392,1.411,2.8,1.411,2.67-1.466,2.67-1.466a1.447,1.447,0,0,1,1.673-.153s-.327,3.036-4.343,3.033c-4.358,0-4.242-2.774-4.242-2.774a1.2,1.2,0,0,1,1.444-.051" transform="translate(-160.651 -76.904)" fill="#ffb56c"/>
        <path id="Path_1228" data-name="Path 1228" d="M315.417,122.509c-1-.454-2.326.323-2.968,1.735s-.352,2.923.646,3.377,2.326-.324,2.967-1.735.352-2.923-.646-3.377" transform="translate(-153.951 -60.365)" fill="#de8f78"/>
        <path id="Path_1229" data-name="Path 1229" d="M327.685,109.146l-1.915-.354a9.633,9.633,0,0,0-11.2,7.7l-.636,3.432c-.538,6.305,3.678,10.451,8.873,11.413s10.973-2.364,11.936-7.561l.635-3.433a9.636,9.636,0,0,0-7.7-11.2" transform="translate(-154.83 -53.583)" fill="#e5a185"/>
        <path id="Path_1230" data-name="Path 1230" d="M332.321,136.7l-6.467-1.2a.627.627,0,0,0-.651.771c.351,2.02,1.519,3.58,3.134,3.879s3.265-.739,4.315-2.5a.627.627,0,0,0-.332-.953" transform="translate(-160.405 -66.836)" fill="#65342e"/>
        <path id="Path_1231" data-name="Path 1231" d="M326.477,139.83a3.658,3.658,0,0,0,2.494,1.99,4.225,4.225,0,0,0,4.088-2.146c-2.217-.929-4.816-1.26-6.582.155" transform="translate(-161.038 -68.5)" fill="#8c4942"/>
        <path id="Path_1232" data-name="Path 1232" d="M355.826,131.549c-1.129-.43-2.512.452-3.092,1.97s-.133,3.1,1,3.527,2.512-.452,3.092-1.969.133-3.1-1-3.528" transform="translate(-173.865 -64.834)" fill="#e5a185"/>
        <path id="Path_1233" data-name="Path 1233" d="M322.142,142.349a10.115,10.115,0,0,0,11.577-6.965,2.106,2.106,0,0,0,1.414,1.68c1.825.573,3.036-1.535,2.808-3.186a3.383,3.383,0,0,1-.054,2.4c-.579,1.518-1.963,2.4-3.091,1.97a1.664,1.664,0,0,1-.473-.291c-1.775,4.18-6.819,6.681-11.411,5.831-4.441-.822-8.162-3.971-8.815-8.805,1.141,3.7,3.505,6.526,8.044,7.365" transform="translate(-154.932 -66.037)" fill="#de8f78"/>
        <path id="Path_1234" data-name="Path 1234" d="M337.651,111.153c-.178-.11-.146-1.638-.328-1.742a3.726,3.726,0,0,0-1.163-.435c.041-.888.071-1.5.071-1.5s-3.638-1.068-4.862-3.3c-1.631.231-4.09.426-5.351-.231a11.366,11.366,0,0,1,1.823-1.116s-5.139,1.626-7.161.507a10.477,10.477,0,0,0-2.728,2.777c-.183-.021-.41.973-.594.952a10.316,10.316,0,0,1,1.756-4.119,3.2,3.2,0,0,1-1.509.1,5.247,5.247,0,0,1,3.492-2.592s-1.584-1.019-1.91-1.934a6.264,6.264,0,0,1,5.037.444,2.352,2.352,0,0,1-.619-1.481,7.358,7.358,0,0,1,4.606,1.24c-.078-.193.131-.881.085-1.156a12.026,12.026,0,0,1,6.772,4.622,3.343,3.343,0,0,1,.028-1.816s3.051,1.808,2.951,6.52c-.022,1.07-.305,3.44-.4,4.26" transform="translate(-156.54 -48.074)" fill="#825451"/>
        <path id="Path_1235" data-name="Path 1235" d="M334.386,120.264a11.345,11.345,0,0,1,1.216-2.057,24.787,24.787,0,0,0,.528-7.852c-.8-4.834-16.923-9.225-19.243-2.838s-2.518,9.226-2.518,9.226,2.461-10.121,10.919-8.869c10.389,1.538,8.647,12.271,8.647,12.271Z" transform="translate(-155.066 -51.46)" fill="#825451"/>
        <path id="Path_1236" data-name="Path 1236" d="M340.928,129.686c-.09.844.365,1.5,1.017,1.458a1.7,1.7,0,0,0,1.344-1.6c.09-.844-.365-1.5-1.017-1.458a1.7,1.7,0,0,0-1.344,1.6" transform="translate(-168.161 -63.179)" fill="#422115"/>
        <path id="Path_1237" data-name="Path 1237" d="M321.9,126.935c-.09.844.365,1.5,1.017,1.458a1.7,1.7,0,0,0,1.344-1.6c.09-.844-.365-1.5-1.017-1.458a1.7,1.7,0,0,0-1.344,1.6" transform="translate(-158.775 -61.822)" fill="#422115"/>
        <path id="Path_1238" data-name="Path 1238" d="M344.2,124.117s1.584,24.243.324,26.15c-.717,1.084-30.151,2.344-30.151,2.344l.183-3.473s24.245-1.9,24.688-2.972-1.268-19.794-1.462-22.376c-.015-.2,6.419.327,6.419.327" transform="translate(-155.066 -61.038)" fill="#d8937c"/>
        <g id="Group_1687" data-name="Group 1687" transform="translate(182.712 62.706)" opacity="0.65">
          <g id="Group_1686" data-name="Group 1686">
            <g id="Group_1685" data-name="Group 1685" clip-path="url(#clip-path-12)">
              <path id="Path_1239" data-name="Path 1239" d="M367.3,129.646c-.171-3.233-.321-5.529-.321-5.529s-6.434-.528-6.419-.327c.054.716.225,2.678.434,5.158a7.314,7.314,0,0,1,6.305.7" transform="translate(-360.563 -123.744)" fill="#d38472"/>
            </g>
          </g>
        </g>
        <path id="Path_1240" data-name="Path 1240" d="M366.739,114.7a47.782,47.782,0,0,0-.914-10.467,8.863,8.863,0,0,0-4.538-5.992l-3.1,7.394,1.052,9.8c2.486-.345,4.99-.592,7.5-.733" transform="translate(-176.681 -48.459)" fill="#f05022"/>
        <path id="Path_1241" data-name="Path 1241" d="M312.014,158.014s-8.861,3.413-9.832,6.116,12.985,1.753,12.985,1.753-.636-2.174-2.119-2.576c-1.289-.349-3.4,1.076-3.9.823a5.208,5.208,0,0,1-1.058-.823,9.733,9.733,0,0,0,3.392-1.237c1.129-.853.531-4.055.531-4.055" transform="translate(-149.03 -77.942)" fill="#de8f78"/>
        <path id="Path_1242" data-name="Path 1242" d="M313.235,163.306a9,9,0,0,0,2.756-1.237c1.129-.853.53-4.055.53-4.055a44.255,44.255,0,0,0-5.25,2.17Z" transform="translate(-153.538 -77.942)" fill="#feaa48"/>
        <path id="Path_1243" data-name="Path 1243" d="M337.053,158.014s6.791,4.775,7.168,6.919c.387,2.2-13.008,1.076-18.159.8,0,0,1.181-2.744,2.407-2.83a4.672,4.672,0,0,1,2.993.656s4.734-.591,5.791-.656-3.255-1.134-2.472-2.721a4.73,4.73,0,0,1,2.272-2.171" transform="translate(-160.834 -77.942)" fill="#e39f83"/>
        <path id="Path_1244" data-name="Path 1244" d="M349.8,161.1c0-.059.007-.118.01-.177-.011-.165-.066-.432.022-.084a1.633,1.633,0,0,1-.053-.8,12.221,12.221,0,0,0-5.591-3.144,11.726,11.726,0,0,1-1,2.735c-.472.957,1.348,2.261,2.286,2.734a34.591,34.591,0,0,0,4.32-1.216c0-.017,0-.034,0-.051" transform="translate(-169.246 -77.393)" fill="#feaa48"/>
        <path id="Path_1245" data-name="Path 1245" d="M94.763,154.242l-2.294,7.633c.24.011.48.026.72.038q1.49-.011,2.98-.015l1.87-6.222Z" transform="translate(-45.611 -76.081)" fill="#3c4a4c"/>
        <path id="Path_1246" data-name="Path 1246" d="M96.4,172.158H70.658a2.594,2.594,0,1,1,0-5.189H96.4a2.594,2.594,0,0,1,0,5.189" transform="translate(-33.573 -82.359)" fill="#3c4a4c"/>
        <path id="Path_1247" data-name="Path 1247" d="M80.8,192.9l-1.548,7.547a2.108,2.108,0,0,0,4.129.847l1.629-7.942a2.052,2.052,0,0,0,.04-.452Z" transform="translate(-39.072 -95.152)" fill="#777"/>
        <path id="Path_1248" data-name="Path 1248" d="M179.778,192.9l-1.548,7.547a2.108,2.108,0,0,0,4.129.847l1.629-7.942a2.051,2.051,0,0,0,.04-.452Z" transform="translate(-87.893 -95.152)" fill="#777"/>
        <path id="Path_1249" data-name="Path 1249" d="M471.331,192.9l1.548,7.547a2.108,2.108,0,0,1-4.129.847l-1.629-7.942a2.053,2.053,0,0,1-.04-.452Z" transform="translate(-230.392 -95.152)" fill="#777"/>
        <path id="Path_1250" data-name="Path 1250" d="M293.615,170.356l-28.382-.273a.8.8,0,1,0-.009,1.6l28.448,0c.441,0,.775-.192.777-.633a.752.752,0,0,0-.834-.7" transform="translate(-130.431 -83.895)" fill="#9a9897"/>
        <path id="Path_1251" data-name="Path 1251" d="M272.736,170.8l-1.49-.009a.372.372,0,1,0,0,.745l1.49.009a.372.372,0,0,0,0-.745" transform="translate(-133.61 -84.246)" fill="#3d3d3d"/>
        <path id="Path_1252" data-name="Path 1252" d="M279.69,170.843l-1.49-.009a.372.372,0,1,0,0,.745l1.489.009a.372.372,0,1,0,0-.745" transform="translate(-137.041 -84.266)" fill="#3d3d3d"/>
        <path id="Path_1253" data-name="Path 1253" d="M291.165,171.283a.374.374,0,0,0-.37-.374l-3.294-.019a.372.372,0,0,0,0,.745l3.295.019A.374.374,0,0,0,291.165,171.283Z" transform="translate(-141.628 -84.293)" fill="#3d3d3d"/>
        <path id="Path_1254" data-name="Path 1254" d="M203.276,118.011a1.4,1.4,0,0,0-1.252-.779l-37.78-.035a1.4,1.4,0,0,0-1.254,2.014L175.6,144.787a1.4,1.4,0,0,0,1.251.779l37.78.035a1.4,1.4,0,0,0,1.254-2.014Z" transform="translate(-80.325 -57.809)" fill="#9a9897"/>
      </g>
    </g>
    <g id="Group_1691" data-name="Group 1691" transform="translate(81.747 59.387)">
      <g id="Group_1690" data-name="Group 1690" clip-path="url(#clip-path-13)">
        <rect id="Rectangle_2332" data-name="Rectangle 2332" width="58.337" height="57.922" transform="matrix(0.715, -0.699, 0.699, 0.715, -14.512, 13.874)" fill="url(#linear-gradient)"/>
      </g>
    </g>
    <g id="Group_1708" data-name="Group 1708">
      <g id="Group_1707" data-name="Group 1707" clip-path="url(#clip-path)">
        <path id="Path_1256" data-name="Path 1256" d="M64.885,203.056l-10.7,82.12a.879.879,0,0,0,.873.993H57.1a.88.88,0,0,0,.86-.692l17.934-82.119a.88.88,0,0,0-.859-1.068H65.757a.88.88,0,0,0-.873.766" transform="translate(-26.725 -99.782)" fill="#c19d84"/>
        <path id="Path_1257" data-name="Path 1257" d="M385.6,157.583a.312.312,0,0,0-.312.312v3.345a3.7,3.7,0,0,0,3.691,3.691h4.214a3.7,3.7,0,0,0,3.691-3.691v-3.5l-.157-.157Z" transform="translate(-190.048 -77.729)" fill="#988378"/>
        <g id="Group_1694" data-name="Group 1694" transform="translate(195.241 79.854)" opacity="0.08">
          <g id="Group_1693" data-name="Group 1693">
            <g id="Group_1692" data-name="Group 1692" clip-path="url(#clip-path-15)">
              <path id="Path_1258" data-name="Path 1258" d="M396.884,157.963v-.223l-.157-.157H385.6a.312.312,0,0,0-.312.312v.068Z" transform="translate(-385.289 -157.583)" fill="#fff"/>
            </g>
          </g>
        </g>
        <path id="Path_1259" data-name="Path 1259" d="M396.35,172.348H383.175a.57.57,0,1,1,0-1.14H396.35a.57.57,0,1,1,0,1.14" transform="translate(-188.724 -84.45)" fill="#988378"/>
        <g id="Group_1697" data-name="Group 1697" transform="translate(193.89 86.758)" opacity="0.08">
          <g id="Group_1696" data-name="Group 1696">
            <g id="Group_1695" data-name="Group 1695" clip-path="url(#clip-path-16)">
              <path id="Path_1260" data-name="Path 1260" d="M396.92,171.736a.568.568,0,0,0-.561-.528H383.183a.568.568,0,0,0-.561.528Z" transform="translate(-382.622 -171.208)" fill="#fff"/>
            </g>
          </g>
        </g>
        <path id="Path_1261" data-name="Path 1261" d="M59.764,203.023l-10.706,82.2a.841.841,0,0,0,.834.95h2.1a.841.841,0,0,0,.825-.679l16.2-82.2a.841.841,0,0,0-.825-1H60.6a.841.841,0,0,0-.834.733" transform="translate(-24.195 -99.782)" fill="#ceac91"/>
        <path id="Path_1262" data-name="Path 1262" d="M464.828,203.336l16.183,82.127a.876.876,0,0,0,.86.707h2.053a.877.877,0,0,0,.872-.968l-8.631-82.126a.876.876,0,0,0-.872-.785h-9.605a.876.876,0,0,0-.86,1.046" transform="translate(-229.273 -99.782)" fill="#c19d84"/>
        <path id="Path_1263" data-name="Path 1263" d="M459.715,203.354l16.177,82.1a.892.892,0,0,0,.875.72h2a.891.891,0,0,0,.884-1.007l-10.693-82.1a.892.892,0,0,0-.884-.776h-7.482a.892.892,0,0,0-.875,1.064" transform="translate(-226.751 -99.782)" fill="#ceac91"/>
        <path id="Path_1264" data-name="Path 1264" d="M163.86,203.044l-10.7,82.149a.865.865,0,0,0,.858.977h2.066a.866.866,0,0,0,.845-.681l17.94-82.149a.865.865,0,0,0-.845-1.05h-9.306a.865.865,0,0,0-.857.754" transform="translate(-75.544 -99.782)" fill="#bc9982"/>
        <path id="Path_1265" data-name="Path 1265" d="M372.355,192.9l1.548,7.547a2.108,2.108,0,1,1-4.129.847l-1.629-7.942a2.051,2.051,0,0,1-.04-.452Z" transform="translate(-181.571 -95.152)" fill="#777"/>
        <path id="Path_1266" data-name="Path 1266" d="M158.74,203.016l-10.708,82.212a.834.834,0,0,0,.827.942h2.112a.834.834,0,0,0,.818-.673l16.2-82.211a.834.834,0,0,0-.818-1h-7.6a.834.834,0,0,0-.827.726" transform="translate(-73.014 -99.782)" fill="#c6a38b"/>
        <path id="Path_1267" data-name="Path 1267" d="M365.848,203.325l16.186,82.146a.867.867,0,0,0,.851.7h2.074a.867.867,0,0,0,.862-.956l-8.43-82.145a.867.867,0,0,0-.862-.779H366.7a.867.867,0,0,0-.851,1.035" transform="translate(-180.45 -99.782)" fill="#c19d84"/>
        <path id="Path_1268" data-name="Path 1268" d="M360.748,203.376l16.169,82.058a.911.911,0,0,0,.893.734h1.962a.91.91,0,0,0,.9-1.028l-10.688-82.058a.911.911,0,0,0-.9-.793h-7.442a.91.91,0,0,0-.893,1.086" transform="translate(-177.934 -99.782)" fill="#c6a38b"/>
        <path id="Path_1269" data-name="Path 1269" d="M280.424,187.207H63.857a1.4,1.4,0,0,1-1.394-1.394v-5.932a1.4,1.4,0,0,1,1.394-1.394H280.424a1.4,1.4,0,0,1,1.394,1.394v5.932a1.4,1.4,0,0,1-1.394,1.394" transform="translate(-30.811 -88.041)" fill="#ceac91"/>
        <g id="Group_1700" data-name="Group 1700" transform="translate(31.653 90.447)" opacity="0.1">
          <g id="Group_1699" data-name="Group 1699">
            <g id="Group_1698" data-name="Group 1698" clip-path="url(#clip-path-17)">
              <path id="Path_1270" data-name="Path 1270" d="M281.818,186.019v-6.341a1.192,1.192,0,0,0-1.189-1.189H63.652a1.192,1.192,0,0,0-1.189,1.189v4.144H218.4Z" transform="translate(-62.463 -178.489)"/>
            </g>
          </g>
        </g>
        <path id="Path_1271" data-name="Path 1271" d="M343.327,178.563H172.589a2.626,2.626,0,0,1-2.618-2.618v-.384a2.626,2.626,0,0,1,2.618-2.618H343.327a2.626,2.626,0,0,1,2.618,2.618v.384a2.626,2.626,0,0,1-2.618,2.618" transform="translate(-83.84 -85.305)" fill="#ceac91"/>
        <path id="Path_1272" data-name="Path 1272" d="M215.911,178.563H45.173a2.626,2.626,0,0,1-2.618-2.618v-.384a2.626,2.626,0,0,1,2.618-2.618H215.911a2.626,2.626,0,0,1,2.618,2.618v.384a2.626,2.626,0,0,1-2.618,2.618" transform="translate(-20.991 -85.305)" fill="#e4c9ab"/>
        <path id="Path_1273" data-name="Path 1273" d="M85.168,116.21l-.126.039c-.562.173-1.274-.506-1.581-1.508l-12.8-40.16c-.307-1-.1-1.962.464-2.135l.126-.039c.563-.172,1.274.506,1.581,1.508l12.8,40.16c.307,1,.1,1.963-.463,2.135" transform="translate(-34.786 -35.702)" fill="#3c4a4c"/>
        <path id="Path_1274" data-name="Path 1274" d="M92.336,116.4l-.126.039c-.562.173-1.274-.506-1.581-1.508l-12.8-40.16c-.307-1-.1-1.963.464-2.135l.126-.039c.562-.173,1.274.506,1.582,1.508l12.8,40.16c.307,1,.1,1.963-.464,2.135" transform="translate(-38.322 -35.796)" fill="#3c4a4c"/>
        <path id="Path_1275" data-name="Path 1275" d="M69.776,50.513l-.054-.12c-.24-.537.366-1.335,1.348-1.774l39.292-18.067c.982-.439,1.981-.359,2.221.178l.054.12c.24.537-.367,1.335-1.348,1.774L72,50.691c-.982.439-1.981.359-2.221-.178" transform="translate(-34.365 -14.93)" fill="#3c4a4c"/>
        <path id="Path_1276" data-name="Path 1276" d="M78.084,56.216l-.054-.12c-.24-.537.366-1.335,1.348-1.774L118.67,36.254c.982-.439,1.981-.359,2.221.178l.054.12c.24.537-.366,1.335-1.348,1.774L80.3,56.394c-.982.439-1.981.359-2.221-.178" transform="translate(-38.463 -17.743)" fill="#3c4a4c"/>
        <path id="Path_1277" data-name="Path 1277" d="M96.447,155.695l5.191-1.453-.175,2.482-4.869,1.353Z" transform="translate(-47.573 -76.081)" fill="#3c4a4c"/>
        <path id="Path_1278" data-name="Path 1278" d="M198.727,33.179c-2.668-5.626-10.292-7.611-17.046-4.43S171.6,39.071,174.238,44.711A103.3,103.3,0,0,0,186.79,39.6c9.105-4.288,11.937-6.418,11.937-6.418" transform="translate(-85.499 -13.433)" fill="#3c4a4c"/>
        <g id="Group_1703" data-name="Group 1703" transform="translate(87.839 14.113)" opacity="0.13">
          <g id="Group_1702" data-name="Group 1702">
            <g id="Group_1701" data-name="Group 1701" clip-path="url(#clip-path-18)">
              <path id="Path_1279" data-name="Path 1279" d="M191.247,27.85a6.773,6.773,0,0,1,.532,2.545c.107,4.516-4.322,7.89-8.128,9.385a16.041,16.041,0,0,1-10.289.462,9.715,9.715,0,0,0,.879,4.773A103.4,103.4,0,0,0,186.793,39.9c9.105-4.288,11.938-6.418,11.938-6.418a10.53,10.53,0,0,0-7.483-5.633" transform="translate(-173.341 -27.85)"/>
            </g>
          </g>
        </g>
        <path id="Path_1280" data-name="Path 1280" d="M172.575,29.323l-7.989.931.227,1.947,8.239-.96Z" transform="translate(-81.184 -14.464)" fill="#3c4a4c"/>
        <path id="Path_1281" data-name="Path 1281" d="M148.524,30.734l3.36,5.78,3.123-1.509,4.2-3.1-.15-1.289-8.71-.664Z" transform="translate(-73.261 -14.776)" fill="#3c4a4c"/>
        <path id="Path_1282" data-name="Path 1282" d="M73.388,64.062c.188-.087,4.5,5.254,4.5,5.254l-2.032.934.971,3.206-5.867.37-1.928-6.289a1.587,1.587,0,0,1,.868-1.913Z" transform="translate(-34.019 -31.599)" fill="#3c4a4c"/>
        <path id="Path_1283" data-name="Path 1283" d="M176.984,22.149l-4.35-9.065A2.328,2.328,0,0,1,173.8,10l3.87-1.823a2.329,2.329,0,0,1,3.115,1.066l4.13,8.77s-.055,1.305-3.249,2.732c-3.655,1.632-4.679,1.4-4.679,1.4" transform="translate(-85.048 -3.921)" fill="#4a5a5b"/>
        <g id="Group_1706" data-name="Group 1706" transform="translate(93.016 4.033)" opacity="0.13">
          <g id="Group_1705" data-name="Group 1705">
            <g id="Group_1704" data-name="Group 1704" clip-path="url(#clip-path-19)">
              <path id="Path_1284" data-name="Path 1284" d="M186.275,9.251a2.31,2.31,0,0,0-2.718-1.208c3.18,3.41,4.032,9.668,1.346,13.608.607-.207,1.348-.5,2.252-.9,3.194-1.426,3.249-2.731,3.249-2.731Z" transform="translate(-183.557 -7.958)"/>
            </g>
          </g>
        </g>
        <path id="Path_1285" data-name="Path 1285" d="M292.871,158.239c-.084-.336-2.117-.226-3.477-.114a1.281,1.281,0,0,1-.193.177,6.9,6.9,0,0,1-1.964.57s5.761-.127,5.634-.633" transform="translate(-141.683 -77.942)" fill="#d58a73"/>
        <path id="Path_1286" data-name="Path 1286" d="M366.638,167.843c-.14-.514-2.909-.614-4.075-.631a1.276,1.276,0,0,1-.058.394c-.054.132-.219.2-.567.281l-.4.106s5.292.548,5.1-.149" transform="translate(-178.331 -82.479)" fill="#d58a73"/>
        <path id="Path_1287" data-name="Path 1287" d="M311.236,167.7l-.04-.039s.166-.028.425-.085v-.117a3.709,3.709,0,0,0-1.711-.574c-.381-.034-1.157-.145-1.43.164a.192.192,0,0,0-.052.1.152.152,0,0,0,.094.147c.179.086.478-.029.67-.035a3.92,3.92,0,0,1,.8.06,5.376,5.376,0,0,1,1.247.384" transform="translate(-152.135 -82.293)" fill="#d1806d"/>
        <path id="Path_1288" data-name="Path 1288" d="M348.184,166.985c.111-.114.685-.087.839-.1a8.934,8.934,0,0,1,1.177-.014,6.409,6.409,0,0,1,1.293.2c.219.059.9.461,1.07.207a.226.226,0,0,0,0-.229c-.311-.589-1.554-.64-2.125-.672a5.433,5.433,0,0,0-2.53.38c.2.108.32.185.277.229" transform="translate(-171.609 -82.06)" fill="#de8f78"/>
        <path id="Path_1289" data-name="Path 1289" d="M311.063,161.383l1.536-.633,1.525,3.783-1.2.313Z" transform="translate(-153.435 -79.292)" fill="#ffb56c"/>
        <path id="Path_1290" data-name="Path 1290" d="M347.6,164.448l.275.57,4.565-1.075.1-.582-.76-1.064Z" transform="translate(-171.46 -80.054)" fill="#ffb56c"/>
        <path id="Path_1291" data-name="Path 1291" d="M408.45,163.935a1.977,1.977,0,0,1-1.513-.681,2.362,2.362,0,0,1-.516-1.883,2.738,2.738,0,0,1,2.572-2.426,1.977,1.977,0,0,1,1.512.681,2.366,2.366,0,0,1,.517,1.883h0a2.74,2.74,0,0,1-2.573,2.426m.544-3.976a1.757,1.757,0,0,0-1.568,1.55,1.351,1.351,0,0,0,.275,1.079.965.965,0,0,0,.749.334,1.758,1.758,0,0,0,1.568-1.55,1.352,1.352,0,0,0-.276-1.079.963.963,0,0,0-.748-.333" transform="translate(-200.459 -78.402)" fill="#988378"/>
      </g>
    </g>
  </g>
</svg>
